<svg xmlns="http://www.w3.org/2000/svg" width="108" height="108" fill="none" viewBox="0 0 108 108"><path fill="#19BB9E" d="M74.0561 37.875H77.6041L63.9329 72.0531C62.2244 76.3243 58.0877 79.125 53.4875 79.125H49.875L63.6175 44.9299C65.3305 40.6677 69.4626 37.875 74.0561 37.875Z"/><path fill="#19BB9E" d="M83.591 47.9584H76.8743C75.632 47.9584 74.625 48.9654 74.625 50.2077C74.625 51.4499 75.632 52.457 76.8743 52.457H79.108C81.5839 52.457 83.591 50.4343 83.591 47.9584Z"/><path fill="#19BB9E" d="M87 37.875H80.2832C79.041 37.875 78.0339 38.882 78.0339 40.1243C78.0339 41.3665 79.041 42.3736 80.2832 42.3736H82.517C84.9929 42.3736 87 40.3509 87 37.875Z"/><path fill="#0180FF" d="M24.4329 37.875H21L30.6376 63.5751C32.2841 67.9661 36.4818 70.875 41.1713 70.875H44.6042L34.9666 45.1749C33.32 40.7839 29.1224 37.875 24.4329 37.875Z"/><path fill="#0180FF" d="M41.3913 47.0417H37.9584L44.1584 63.5752C45.805 67.9661 50.0026 70.8751 54.6921 70.8751H58.125L51.925 54.3416C50.2784 49.9507 46.0808 47.0417 41.3913 47.0417Z"/></svg>